<svg id="Capa_1" data-name="Capa 1" xmlns="http://www.w3.org/2000/svg" viewBox="0 0 272 272"><defs><style>.cls-1{fill:#ff5a30;}</style></defs><path class="cls-1" d="M192.7,5.7H90.7a85.06,85.06,0,0,0-85,85v102a85.06,85.06,0,0,0,85,85h102a85.06,85.06,0,0,0,85-85V90.7A85,85,0,0,0,192.7,5.7Zm59.5,187a59.58,59.58,0,0,1-59.5,59.5H90.7a59.58,59.58,0,0,1-59.5-59.5V90.7A59.58,59.58,0,0,1,90.7,31.2h102a59.58,59.58,0,0,1,59.5,59.5Z" transform="translate(-5.7 -5.7)"/><path class="cls-1" d="M141.7,73.7a68,68,0,1,0,68,68A67.94,67.94,0,0,0,141.7,73.7Zm0,110.5a42.5,42.5,0,1,1,42.5-42.5A42.59,42.59,0,0,1,141.7,184.2Z" transform="translate(-5.7 -5.7)"/><circle class="cls-1" cx="209.1" cy="62.9" r="9.1"/></svg>