<svg id="Capa_1" data-name="Capa 1" xmlns="http://www.w3.org/2000/svg" viewBox="0 0 271.4 190"><defs><style>.cls-1{fill:#ff5a30;}</style></defs><path class="cls-1" d="M271.5,70.4a33.93,33.93,0,0,0-23.9-23.9c-21.2-5.8-106.2-5.8-106.2-5.8s-84.9,0-106.2,5.6A34.55,34.55,0,0,0,11.3,70.4c-5.6,21.2-5.6,65.3-5.6,65.3s0,44.3,5.6,65.3a33.93,33.93,0,0,0,23.9,23.9c21.5,5.8,106.2,5.8,106.2,5.8s84.9,0,106.2-5.6a33.93,33.93,0,0,0,23.9-23.9c5.6-21.2,5.6-65.3,5.6-65.3S277.3,91.7,271.5,70.4Zm-157.1,106V95L185,135.7Z" transform="translate(-5.7 -40.7)"/></svg>